<svg class="qodef-svg--side-area-opener" xmlns="http://www.w3.org/2000/svg" viewBox="0 0 54.5 58" fill="currentColor"><g><path d="M54.278 28.903c-.046-.018-.065-.022-.068-.019s.045.035.045.031a1.091 1.091 0 0 0 .2.076.248.248 0 0 1 .045.008c-.104-.044-.176-.078-.222-.096Z"></path><path d="m50.119 28.297-.593-.04.521.047Z"></path><path d="m48.436 28.08.307-.011c-.806-.109-1.855-.247-2.416-.373a19.6 19.6 0 0 0 2 .351Z"></path><path d="m42.955 27.205-.08-.025c-.079-.016-.187-.042-.37-.088.113.055-.426-.072.45.113Z"></path><path d="M42.898 27.183c.384.083-.247-.078 0 0Z"></path><path d="m40.839 26.721.5.115c-.1-.045-.541-.172-.373-.137-.508-.134-.408-.091-.127.022Z"></path><path d="m40.234 26.625.26.068a.993.993 0 0 0-.26-.068Z"></path><path d="M41.141 26.834c-.185-.044-.37-.086-.553-.136a.409.409 0 0 0 .252.067c-.051.008.063.019.301.069Z"></path><path d="M41.785 27.031a2.641 2.641 0 0 0 .659.13c-.033-.021-.308-.092-.789-.214.278.087.639.19.13.084Z"></path><path d="M46.842 27.854c-.169-.016-.739-.154-.719-.128l.381.093Z"></path><path d="M37.299 25.476c-.035 0 .134.116.162.147l.35.146a3.54 3.54 0 0 1-.512-.293Z"></path><path d="M37.388 25.616q-.259-.114-.516-.236c.449.239.537.265.516.236Z"></path><path d="M41.107 26.892c-.366-.082-.729-.171-1.091-.271l.172.056c.306.076.612.15.919.215Z"></path><path d="M35.362 24.413c-.164-.095-.319-.2-.477-.306l.2.142c.091.059.186.11.277.164Z"></path><path d="M33.777 23.204c.181.15-.184-.266 0-.1-.133-.137-.25-.271-.366-.39s-.217-.239-.313-.352c.1.123.2.247.309.388s.225.291.37.454Z"></path><path d="M32.674 21.936c.089.13.2.252.312.39-.101-.134-.211-.258-.312-.39Z"></path><path d="M35.8 24.828a2.723 2.723 0 0 0-.34-.288c.051.056.1.111.156.163Z"></path><path d="m35.585 24.702-.006-.006c-.167-.116-.286-.208-.354-.259.062.046.171.132.36.265Z"></path><path d="m35.177 24.429-.032-.024Z"></path><path d="M35.828 24.839a.106.106 0 0 0 .046.031Z"></path><path d="m38.358 26.086-.528-.187c-.124-.046-.139-.028.165.124.233.069-.115-.103.363.063Z"></path><path d="M36.773 25.385c-.192-.1-.387-.192-.574-.3.167.111.342.211.517.313-.006-.016-.097-.084.057-.013Z"></path><path d="m36.106 25.071-.188-.121-.068-.026c.082.053.171.098.256.147Z"></path><path d="M33.301 22.805c-.089-.094-.175-.2-.266-.309s-.175-.236-.271-.365a8.008 8.008 0 0 0 .621.827c.042.028.155.124-.084-.153Z"></path><path d="M34.353 23.81c-.014-.011-.031-.026-.043-.037.021.031.048.05.043.037Z"></path><path d="m30.98 19.112.011.05.012.009Z"></path><path d="M33.507 23.049a2.264 2.264 0 0 0 .214.239c.063.063.119.114.174.163-.134-.138-.28-.282-.42-.451-.018-.013-.023-.013.032.049Z"></path><path d="M32.3 21.548c-.056-.12-.175-.359-.2-.4.049.126.125.257.2.4Z"></path><path d="m34.243 23.702.029.025c-.055-.065-.05-.054-.029-.025Z"></path><path d="M34.227 23.696c-.1-.088-.182-.152-.261-.22.113.109.222.205.315.289-.02-.029-.04-.05-.054-.069Z"></path><path d="M31.489 20.244c.034.074.072.147.11.219-.062-.126-.1-.239-.15-.361s-.095-.257-.149-.434a3.042 3.042 0 0 0-.235-.468c.138.38.3.75.465 1.117Z"></path><path d="M31.966 21.208a4.617 4.617 0 0 0 .534.773c-.161-.242-.229-.347-.244-.38s.014.01.05.061a.613.613 0 0 0 .09.106 1.5 1.5 0 0 0-.126-.239c.06.1.121.186.179.272s.112.17.168.248c-.058-.087-.108-.175-.161-.26s-.1-.168-.146-.252a.237.237 0 0 1 .012.024c.021.046.026.062 0 .012l-.013-.02a.176.176 0 0 1-.04-.037c-.164-.293-.018-.051.04.037 0 0 .01.009.013.009-.1-.164-.206-.327-.3-.5-.047-.084-.1-.167-.142-.253l-.135-.258a8.671 8.671 0 0 0 .524.966c-.142-.137-.438-.65-.303-.309Z"></path><path d="M37.226 25.833c-.03-.02-.027-.022-.029-.026-.07-.031-.097-.041.029.026Z"></path><path d="m36.224 25.199-.023-.026c-.018-.008-.006.003.023.026Z"></path><path d="M37.264 25.771c-.026-.01-.052-.021-.077-.032a6.6 6.6 0 0 1-.813-.519 2.842 2.842 0 0 0 .422.35 3.3 3.3 0 0 1 .4.183c.212.117-.01.019 0 .036.146.064.533.224.068-.018Z"></path><path d="M33.913 23.668a1.1 1.1 0 0 0 .1.085c.04.028.039.011.069.029-.118-.111-.239-.219-.351-.337l-.171-.174c-.056-.059-.108-.121-.163-.181.05.066.1.135.148.2l.157.194v-.034l.121.131Z"></path><path d="M31.038 19.082c-.087-.166-.168-.336-.25-.507.055.134.1.27.162.4Z"></path><path d="m30.524 17.739-.115-.315.065.281Z"></path><path d="M25.017 15.949c-.051.155-.079.255-.051.236l.071-.115c.06-.286.111-.5.162-.689Z"></path><path d="M28.094 2.842a4.93 4.93 0 0 0 .049.907c-.013-.364-.03-.657-.049-.907Z"></path><path d="M16.293 31.825c.165.057.238.076.237.065-.17-.058-.268-.092-.237-.065Z"></path><path d="M27.997 1.795v.193c.027.265.056.531.079.855a7.944 7.944 0 0 0-.079-1.048Z"></path><path d="M50.254 29.717c.089-.009.237-.029.491-.068-.115.018-.31.043-.491.068Z"></path><path d="M29.232 12.391c.044.267.01.042 0 0Z"></path><path d="M29.282 13.796a.253.253 0 0 0-.039-.1.353.353 0 0 1 .039.1Z"></path><path d="M29.279 12.804c-.011-.1-.025-.217-.042-.344.005.056.018.16.042.344Z"></path><path d="m29.3 12.763.033.234c.013.032.012.002-.033-.234Z"></path><path d="M29.225 12.371c-.012-.078-.029-.189-.057-.373.023.153.042.3.06.434-.006-.052-.007-.074-.003-.061Z"></path><path d="M27.752 57.966Z"></path><path d="M30.506 40.041c0-.01.012-.024.021-.043Z"></path><path d="M52.785 29.293c.415-.087.041-.1-.36-.107q.874-.092 1.79-.183c-13.461-1.347-19.587-2.543-22.779-8.37.032.056.063.115.1.166l.011-.033c-.181-.317-.314-.546-.2-.3q-.225-.422-.427-.875c.137.251.2.28.208.181a2.638 2.638 0 0 0-.1-.609c-.013-.006-.025-.007-.066-.081-.021-.037-.051-.091-.093-.174s-.086-.2-.154-.344c.043.223.5 1.348.244.859-.091-.2-.152-.337-.2-.441a2.268 2.268 0 0 1-.08-.234c-.035-.116-.044-.182-.106-.381.033.175-.081-.076-.2-.348a2.993 2.993 0 0 0-.235-.482 37.1 37.1 0 0 1-1.185-5.072c.012.031.019.026.015-.04l-.087-.475c-.022-.444.218.887.142.281.143.633.324 1.338.487 2.233l-.036.18a5.19 5.19 0 0 0-.153-.838c.05.184.1.529.158.879a3.779 3.779 0 0 0 .231.893c-.038-.21-.066-.421-.1-.631.178.628.447 1.39.662 2.166-.033-.368-.067-.175-.138-.745.007.125-.022.063-.069-.087s-.113-.39-.167-.622c-.12-.463-.208-.893-.176-.495a7.276 7.276 0 0 0-.113-.816 9.1 9.1 0 0 1-.133-.949c-.017.026 0 .274-.107-.392-.012-.029-.033-.1-.047-.143 0-.021 0-.028-.006-.045v.037c-.008-.028-.011-.031 0 .014a2.7 2.7 0 0 1 .024.344 8.078 8.078 0 0 1-.2-.857c-.067-.35-.134-.7-.174-.883-.05-.4.052.163.044-.057l-.125-.532c.045-.06-.063-1.066.1-.134l-.117-.842c-.038-.5-.112-1.184-.186-1.6-.036-.4-.176-1-.095-.658l-.18-1.323.012-.013c-.133-1.31-.359-2.691-.4-4.2-.053-.441-.11-.9-.158-1.637l.033-.147c-.011-.1-.02-.207-.03-.331h-.654c-.055.593-.161 1.411-.14 1.617-.174.6-.274 2.75-.4 3.744l.056.042c-.073.685-.125 1.344-.2 2.2l.06-.047c-.041.737-.261 1.88-.421 3.034a3.321 3.321 0 0 1 .079-.579c-.308 1.365-.35 2.919-.695 4.144a5.065 5.065 0 0 1-.162.746c.007-.029.011-.054.015-.076-.007.031-.019.078-.031.126l-.125.421c.043-.126.08-.247.11-.353-.053.237-.131.6-.208.949l-.095.137c-.008.028-.014.051-.021.08-.113.338-.049.281.042.107-.04.177-.069.341-.094.468-.168.256-.243.918-.474 1.263a2.871 2.871 0 0 1-.1.375c-.061.174-.133.388-.212.6-.132.358-.275.706-.312.869-.09.18-.19.354-.279.529s-.186.345-.263.511l-.155.118c-.123.269-.262.532-.405.795a3.2 3.2 0 0 1-.363.393c-.054.034-.013-.034.122-.267a8.333 8.333 0 0 1-.693.932c-.166.18-.3.349-.7.76l.009-.066a6.987 6.987 0 0 1-1.011.836c-.2.12-.547.333-.994.589a16.947 16.947 0 0 1-1.64.794 19.932 19.932 0 0 1-2 .713c-.687.205-1.371.369-1.978.494.252.005-.033.057-.39.12a3.349 3.349 0 0 0-.823.186c-.149 0-.493.05-.1-.052-1.237.272-1.885.3-2.737.515-.15-.006.261-.084.128-.081a3.578 3.578 0 0 1-.528.089c-.132 0 .18-.05.376-.095-1.285.2-1.4.3-1.481.395a7.878 7.878 0 0 0-1.454.211c-.232 0-.618.02.186-.089l-1.562.175a8.738 8.738 0 0 0-1.25.182c-.145 0-.635.063-.754.084-1.02.1-1.11.107-2.111.214l.279-.017a1.841 1.841 0 0 1-.209.052l-.208-.031v.063h-.03l-.858.1.858.076h.03v.064l.378-.02c.219.027.469.06.776.088l-.023.006c1.842.252.8.053 2.618.321l-.092-.061c.186-.09 1.606.247 2.667.344l-.377-.078c.584.037 1.587.357 2.158.459.125.028-.2-.014-.377-.033.747.141.8.135.8.109s-.034-.069.528.011c.2.069-.283.043.467.176.185.045.735.109 1.363.2a13.96 13.96 0 0 1 1.827.379c-.213-.077-.427-.154.09-.057.2.047.422.108.665.177s.5.15.746.234l.73.236c.23.07.44.134.618.173.091.041.125.06.126.068.146.044.331.114.538.186s.425.164.64.247.418.172.589.25.313.135.4.167a4.424 4.424 0 0 0 .666.453c.316.191.686.43 1.031.673.685.49 1.237 1.023 1.161 1.073a10.906 10.906 0 0 1 1.121 1.338l-.042-.028c.311.457.509.773.662 1.014.076.121.143.222.2.313s.112.174.167.257c.1.232 0 .072-.015.057.089.18.158.343.223.49s.12.277.169.4.095.229.138.332.079.2.118.294c.155.376.3.722.549 1.349l-.018.147a5.315 5.315 0 0 1 .153.515c.062.25.141.565.216.919.159.707.331 1.563.505 2.324a.583.583 0 0 1-.058-.164 27.1 27.1 0 0 1 .439 2.8 9.206 9.206 0 0 0 .346 1.978l.188 1.145c-.156-1.49.118.213.082-.4.083.584.106 1.52.017.8v-.114c-.071-.127-.03.336.018.827a5.069 5.069 0 0 1 .061.993c.176 1.7.307 3.384.431 5.031q-.029.205-.055.41h.011c.03-.145.041.055.072-.027v.063h.458v-.036c.017-.165.031-.329.048-.494.023.294.029.438.026.494h.011c-.008-.176-.017-.352-.033-.528q.119-1.269.238-2.505l-.114.31.094-.958c.044-.25.1-.333.03.351a5.277 5.277 0 0 0 .053-1.171c.167-1.336.048.531.091.12l.049-.558-.022.125a8.857 8.857 0 0 1 .065-1.319c.072-.518.082-.262.106-.466 0 0 .007-.016.014-.063s.013-.127.024-.25l.145-1.2-.124.475c.028-.537.14-1.133-.006-.584.111-.4.256-1.524.417-2.6s.337-2.117.4-2.363a19.013 19.013 0 0 1 .466-2.373c-.069.22-.178.34.024-.432.041.157.151-.193.291-.654a8.93 8.93 0 0 1 .471-1.271c-.035.058-.021-.01.022-.147.025-.082.059-.187.1-.3s.088-.241.134-.364c.187-.491.375-.94.145-.541.284-.608.07-.019.315-.467a10.193 10.193 0 0 1 1.329-2.238 11.818 11.818 0 0 1 2.093-2.072c.014-.033-.281.155.05-.133.315-.192.637-.372.969-.534a4.262 4.262 0 0 0 .348-.262 2.5 2.5 0 0 1 .62-.32c-.1.034-.261.086-.015-.044a27.943 27.943 0 0 1 6.1-1.911 54.108 54.108 0 0 1 6.486-.917c-.589.037-.2-.016.246-.07-.292.026 0-.046-.061-.064.606-.049 1.211-.094 1.818-.137a8.931 8.931 0 0 1 1.112-.156 7.32 7.32 0 0 0 1.037-.145c-.112.017-.226.029-.315.041Zm-21.9-9.771q-.227-.513-.434-1.068c.118.251.292.673.434 1.068Zm-.5-1.26h-.006c-.015-.04-.029-.08-.043-.121Zm-1.635-9-.006-.022c-.035-.468-.024-.302.007.023Zm-.578-3.964c.132 1.043-.018.458.016.639a12.969 12.969 0 0 0 .266 1.769 10 10 0 0 1 .215 1.52c.023.651-.121.042-.148.19-.133-.847-.123-1.309-.191-1.885l.052.713a10.654 10.654 0 0 1-.151-1.147c0 .067.006.167.016.295q-.212-1.9-.411-4.04c.098.382.22 1.088.337 1.947Zm-.781-4.138c.015.033.044-.061.063-.135q-.037.43-.073.851c-.003-.229 0-.491.011-.715Zm-.325 3.778a.325.325 0 0 1 .039-.107c-.034.349-.069.692-.1 1.03l-.094.013.079.131q-.054.512-.108 1.007c-.07 0-.125-.069-.138-.2.015-.101.247-1.54.323-1.874Zm-.941 6.794.1-.93c.006.25.006.693-.01 1.187q-.13.8-.271 1.537c.012-.456.04-1 .106-1.568Zm-2.246 8.131a.349.349 0 0 0-.009.066c-.016.007-.064.097.01-.065Zm-1.149 2.034c-.017.065.035.057.1.043q-.229.317-.474.614c.13-.216.258-.435.375-.656ZM7.705 28.145c.157-.011.032.031-.175.086.087-.017.169-.034.233-.048.189-.016.262-.013.262 0l-.645.087.149-.039-.323.062-.266.034c-.212.008-.393.012-.522.019.432-.062.861-.132 1.288-.199Zm20.664 23.3c.03-.429.033-.308.036-.188Z"></path><path d="M27.213 57.965Z"></path><path d="m29.829 15.249.014.06c-.006-.026-.011-.045-.014-.06Z"></path><path d="M29.79 15.234c.007-.013 0-.1.025-.01l-.115-.51c.061.277.071.379.09.52Z"></path><path d="M29.818 15.926a3.263 3.263 0 0 0 .177.806l-.02-.07c.085.103-.039-.313-.157-.736Z"></path><path d="M30.052 16.874c.034.122.068.246.1.367.032.04-.037-.15-.1-.367Z"></path><path d="M29.108 11.666c.08.209-.236-1.279-.065-.226.015.196.066.115.065.226Z"></path><path d="m29.732 16.272.013-.155c-.032-.072-.061-.144-.091-.216.024.124.051.247.078.371Z"></path><path d="M29.051 12.894c.029.218.06.435.094.652a.526.526 0 0 1 .046.171c-.07-.399-.129-.84-.14-.823Z"></path><path d="M29.318 14.287c-.022-.112-.07-.353-.1-.52.031.208.07.406.1.52Z"></path><path d="M27.993 4.751c.027.17.057.436.063.324l-.078-.715c-.026-.071-.02.125.015.391Z"></path><path d="m52.743 29.441.546-.043-.355.008Z"></path><path d="M53.881 29.175a1.452 1.452 0 0 0 .21-.018 2.089 2.089 0 0 1 .3-.148c-.06.019-.149.051-.245.086a1.812 1.812 0 0 1-.265.08Z"></path></g></svg>